<svg width="74" height="58" viewBox="0 0 74 58" fill="none" xmlns="http://www.w3.org/2000/svg">
<g filter="url(#filter0_d_13_1406)">
<path d="M45.1667 39.8333C45.1667 40.9379 44.2659 41.8493 43.1747 41.6778C41.3447 41.3902 39.5903 40.7085 38.0369 39.6705C35.9265 38.2604 34.2816 36.2561 33.3103 33.9111C32.3389 31.5661 32.0848 28.9858 32.58 26.4963C33.0751 24.0069 34.2974 21.7202 36.0922 19.9255C37.8869 18.1307 40.1736 16.9084 42.6631 16.4133C45.1525 15.9181 47.7328 16.1722 50.0778 17.1435C52.4228 18.1149 54.4271 19.7597 55.8372 21.8702C56.8752 23.4236 57.557 25.178 57.8445 27.008C58.016 28.0992 57.1046 29 56 29L47.1667 29C46.0621 29 45.1667 29.8954 45.1667 31L45.1667 39.8333Z" fill="#D9D9D9" fill-opacity="0.85" shape-rendering="crispEdges"/>
</g>
<g filter="url(#filter1_d_13_1406)">
<path d="M28.8333 18.1666C28.8333 17.0621 29.7341 16.1507 30.8252 16.3222C32.6553 16.6097 34.4097 17.2915 35.9631 18.3295C38.0735 19.7396 39.7184 21.7439 40.6897 24.0889C41.6611 26.4339 41.9152 29.0142 41.42 31.5036C40.9249 33.9931 39.7026 36.2797 37.9078 38.0745C36.1131 39.8693 33.8264 41.0915 31.3369 41.5867C28.8475 42.0819 26.2672 41.8278 23.9222 40.8564C21.5772 39.8851 19.5729 38.2402 18.1628 36.1298C17.1248 34.5763 16.443 32.822 16.1555 30.9919C15.984 29.9008 16.8954 29 18 29L26.8333 29C27.9379 29 28.8333 28.1045 28.8333 27L28.8333 18.1666Z" fill="#D9D9D9" fill-opacity="0.85" shape-rendering="crispEdges"/>
</g>
<defs>
<filter id="filter0_d_13_1406" x="16.3334" y="0.166656" width="57.532" height="57.532" filterUnits="userSpaceOnUse" color-interpolation-filters="sRGB">
<feFlood flood-opacity="0" result="BackgroundImageFix"/>
<feColorMatrix in="SourceAlpha" type="matrix" values="0 0 0 0 0 0 0 0 0 0 0 0 0 0 0 0 0 0 127 0" result="hardAlpha"/>
<feOffset/>
<feGaussianBlur stdDeviation="8"/>
<feComposite in2="hardAlpha" operator="out"/>
<feColorMatrix type="matrix" values="0 0 0 0 0 0 0 0 0 0 0 0 0 0 0 0 0 0 0.5 0"/>
<feBlend mode="normal" in2="BackgroundImageFix" result="effect1_dropShadow_13_1406"/>
<feBlend mode="normal" in="SourceGraphic" in2="effect1_dropShadow_13_1406" result="shape"/>
</filter>
<filter id="filter1_d_13_1406" x="0.134644" y="0.301361" width="57.532" height="57.532" filterUnits="userSpaceOnUse" color-interpolation-filters="sRGB">
<feFlood flood-opacity="0" result="BackgroundImageFix"/>
<feColorMatrix in="SourceAlpha" type="matrix" values="0 0 0 0 0 0 0 0 0 0 0 0 0 0 0 0 0 0 127 0" result="hardAlpha"/>
<feOffset/>
<feGaussianBlur stdDeviation="8"/>
<feComposite in2="hardAlpha" operator="out"/>
<feColorMatrix type="matrix" values="0 0 0 0 0 0 0 0 0 0 0 0 0 0 0 0 0 0 0.5 0"/>
<feBlend mode="normal" in2="BackgroundImageFix" result="effect1_dropShadow_13_1406"/>
<feBlend mode="normal" in="SourceGraphic" in2="effect1_dropShadow_13_1406" result="shape"/>
</filter>
</defs>
</svg>
