<svg width="176" height="58" viewBox="0 0 176 58" fill="none" xmlns="http://www.w3.org/2000/svg">
<g filter="url(#filter0_d_311_319)">
<path d="M45.1667 39.8333C45.1667 40.9379 44.2659 41.8493 43.1747 41.6778C41.3446 41.3902 39.5903 40.7085 38.0369 39.6705C35.9264 38.2604 34.2816 36.2561 33.3102 33.9111C32.3389 31.5661 32.0848 28.9858 32.5799 26.4963C33.0751 24.0069 34.2974 21.7202 36.0921 19.9255C37.8869 18.1307 40.1736 16.9084 42.663 16.4133C45.1524 15.9181 47.7328 16.1722 50.0778 17.1435C52.4228 18.1149 54.4271 19.7597 55.8372 21.8702C56.8752 23.4236 57.5569 25.178 57.8445 27.008C58.0159 28.0992 57.1046 29 56 29L47.1667 29C46.0621 29 45.1667 29.8954 45.1667 31L45.1667 39.8333Z" fill="#2463EB" fill-opacity="0.75" shape-rendering="crispEdges"/>
</g>
<g filter="url(#filter1_d_311_319)">
<path d="M28.8333 18.1666C28.8333 17.0621 29.7341 16.1507 30.8253 16.3222C32.6554 16.6097 34.4097 17.2915 35.9631 18.3295C38.0736 19.7396 39.7184 21.7439 40.6898 24.0889C41.6611 26.4339 41.9152 29.0142 41.4201 31.5036C40.9249 33.9931 39.7026 36.2797 37.9079 38.0745C36.1131 39.8693 33.8264 41.0915 31.337 41.5867C28.8476 42.0819 26.2672 41.8278 23.9222 40.8564C21.5772 39.8851 19.5729 38.2402 18.1628 36.1298C17.1248 34.5763 16.4431 32.822 16.1555 30.9919C15.9841 29.9008 16.8954 29 18 29L26.8333 29C27.9379 29 28.8333 28.1045 28.8333 27L28.8333 18.1666Z" fill="#2463EB" fill-opacity="0.75" shape-rendering="crispEdges"/>
</g>
<path d="M72.432 39.288C71.04 39.288 69.824 38.96 68.784 38.304C67.76 37.632 67.056 36.728 66.672 35.592L69.024 34.464C69.36 35.2 69.824 35.776 70.416 36.192C71.024 36.608 71.696 36.816 72.432 36.816C73.008 36.816 73.464 36.688 73.8 36.432C74.136 36.176 74.304 35.84 74.304 35.424C74.304 35.168 74.232 34.96 74.088 34.8C73.96 34.624 73.776 34.48 73.536 34.368C73.312 34.24 73.064 34.136 72.792 34.056L70.656 33.456C69.552 33.136 68.712 32.648 68.136 31.992C67.576 31.336 67.296 30.56 67.296 29.664C67.296 28.864 67.496 28.168 67.896 27.576C68.312 26.968 68.88 26.496 69.6 26.16C70.336 25.824 71.176 25.656 72.12 25.656C73.352 25.656 74.44 25.952 75.384 26.544C76.328 27.136 77 27.968 77.4 29.04L75 30.168C74.776 29.576 74.4 29.104 73.872 28.752C73.344 28.4 72.752 28.224 72.096 28.224C71.568 28.224 71.152 28.344 70.848 28.584C70.544 28.824 70.392 29.136 70.392 29.52C70.392 29.76 70.456 29.968 70.584 30.144C70.712 30.32 70.888 30.464 71.112 30.576C71.352 30.688 71.624 30.792 71.928 30.888L74.016 31.512C75.088 31.832 75.912 32.312 76.488 32.952C77.08 33.592 77.376 34.376 77.376 35.304C77.376 36.088 77.168 36.784 76.752 37.392C76.336 37.984 75.76 38.448 75.024 38.784C74.288 39.12 73.424 39.288 72.432 39.288ZM83.4881 39.288C82.4801 39.288 81.6001 39.064 80.8481 38.616C80.1121 38.168 79.5441 37.544 79.1441 36.744C78.7601 35.944 78.5681 35.008 78.5681 33.936V25.944H81.7121V33.672C81.7121 34.216 81.8161 34.696 82.0241 35.112C82.2481 35.512 82.5601 35.832 82.9601 36.072C83.3761 36.296 83.8401 36.408 84.3521 36.408C84.8641 36.408 85.3201 36.296 85.7201 36.072C86.1201 35.832 86.4321 35.504 86.6561 35.088C86.8801 34.672 86.9921 34.176 86.9921 33.6V25.944H90.1361V39H87.1601V36.432L87.4241 36.888C87.1201 37.688 86.6161 38.288 85.9121 38.688C85.2241 39.088 84.4161 39.288 83.4881 39.288ZM92.0987 39V20.832H95.2427V32.736L94.0427 32.376L100.187 25.944H104.099L99.2747 31.2L104.195 39H100.595L96.3227 32.232L98.1947 31.848L94.2587 36.072L95.2427 34.152V39H92.0987ZM104.99 39V25.944H107.942V28.848L107.702 28.416C108.006 27.44 108.478 26.76 109.118 26.376C109.774 25.992 110.558 25.8 111.47 25.8H112.238V28.584H111.11C110.214 28.584 109.494 28.864 108.95 29.424C108.406 29.968 108.134 30.736 108.134 31.728V39H104.99ZM113.007 39V25.944H116.151V39H113.007ZM113.007 24.48V21.12H116.151V24.48H113.007ZM124.046 39.144C122.574 39.144 121.43 38.744 120.614 37.944C119.814 37.128 119.414 35.984 119.414 34.512V28.752H117.158V25.944H117.398C118.038 25.944 118.534 25.776 118.886 25.44C119.238 25.104 119.414 24.616 119.414 23.976V22.968H122.558V25.944H125.558V28.752H122.558V34.344C122.558 34.776 122.63 35.144 122.774 35.448C122.934 35.752 123.174 35.984 123.494 36.144C123.83 36.304 124.254 36.384 124.766 36.384C124.878 36.384 125.006 36.376 125.15 36.36C125.31 36.344 125.462 36.328 125.606 36.312V39C125.382 39.032 125.126 39.064 124.838 39.096C124.55 39.128 124.286 39.144 124.046 39.144ZM128.536 39V35.64H131.704V39H128.536Z" fill="#2463EB"/>
<path d="M141.23 39.288C139.966 39.288 138.838 38.992 137.846 38.4C136.854 37.792 136.07 36.968 135.494 35.928C134.918 34.888 134.63 33.736 134.63 32.472C134.63 31.192 134.918 30.04 135.494 29.016C136.07 27.992 136.854 27.176 137.846 26.568C138.854 25.96 139.974 25.656 141.206 25.656C142.198 25.656 143.078 25.856 143.846 26.256C144.63 26.64 145.246 27.184 145.694 27.888L145.214 28.536V20.832H148.358V39H145.382V36.48L145.718 37.104C145.27 37.808 144.646 38.352 143.846 38.736C143.046 39.104 142.174 39.288 141.23 39.288ZM141.566 36.408C142.286 36.408 142.918 36.24 143.462 35.904C144.006 35.568 144.43 35.104 144.734 34.512C145.054 33.92 145.214 33.24 145.214 32.472C145.214 31.72 145.054 31.048 144.734 30.456C144.43 29.848 144.006 29.376 143.462 29.04C142.918 28.704 142.286 28.536 141.566 28.536C140.862 28.536 140.23 28.712 139.67 29.064C139.11 29.4 138.67 29.864 138.35 30.456C138.046 31.032 137.894 31.704 137.894 32.472C137.894 33.24 138.046 33.92 138.35 34.512C138.67 35.104 139.11 35.568 139.67 35.904C140.23 36.24 140.862 36.408 141.566 36.408ZM156.515 39.288C155.171 39.288 153.995 38.984 152.987 38.376C151.979 37.768 151.195 36.944 150.635 35.904C150.075 34.864 149.795 33.712 149.795 32.448C149.795 31.136 150.075 29.976 150.635 28.968C151.211 27.944 151.987 27.136 152.963 26.544C153.955 25.952 155.059 25.656 156.275 25.656C157.299 25.656 158.195 25.824 158.963 26.16C159.747 26.496 160.411 26.96 160.955 27.552C161.499 28.144 161.915 28.824 162.203 29.592C162.491 30.344 162.635 31.16 162.635 32.04C162.635 32.264 162.619 32.496 162.587 32.736C162.571 32.976 162.531 33.184 162.467 33.36H152.387V30.96H160.691L159.203 32.088C159.347 31.352 159.307 30.696 159.083 30.12C158.875 29.544 158.523 29.088 158.027 28.752C157.547 28.416 156.963 28.248 156.275 28.248C155.619 28.248 155.035 28.416 154.523 28.752C154.011 29.072 153.619 29.552 153.347 30.192C153.091 30.816 152.995 31.576 153.059 32.472C152.995 33.272 153.099 33.984 153.371 34.608C153.659 35.216 154.075 35.688 154.619 36.024C155.179 36.36 155.819 36.528 156.539 36.528C157.259 36.528 157.867 36.376 158.363 36.072C158.875 35.768 159.275 35.36 159.563 34.848L162.107 36.096C161.851 36.72 161.451 37.272 160.907 37.752C160.363 38.232 159.715 38.608 158.963 38.88C158.227 39.152 157.411 39.288 156.515 39.288ZM167.76 39L162.624 25.944H166.056L169.776 36.216H168.504L172.248 25.944H175.68L170.544 39H167.76Z" fill="#2463EB" fill-opacity="0.5"/>
<defs>
<filter id="filter0_d_311_319" x="16.3333" y="0.166656" width="57.532" height="57.532" filterUnits="userSpaceOnUse" color-interpolation-filters="sRGB">
<feFlood flood-opacity="0" result="BackgroundImageFix"/>
<feColorMatrix in="SourceAlpha" type="matrix" values="0 0 0 0 0 0 0 0 0 0 0 0 0 0 0 0 0 0 127 0" result="hardAlpha"/>
<feOffset/>
<feGaussianBlur stdDeviation="8"/>
<feComposite in2="hardAlpha" operator="out"/>
<feColorMatrix type="matrix" values="0 0 0 0 0.141176 0 0 0 0 0.388235 0 0 0 0 0.921569 0 0 0 0.24 0"/>
<feBlend mode="normal" in2="BackgroundImageFix" result="effect1_dropShadow_311_319"/>
<feBlend mode="normal" in="SourceGraphic" in2="effect1_dropShadow_311_319" result="shape"/>
</filter>
<filter id="filter1_d_311_319" x="0.134705" y="0.301361" width="57.532" height="57.532" filterUnits="userSpaceOnUse" color-interpolation-filters="sRGB">
<feFlood flood-opacity="0" result="BackgroundImageFix"/>
<feColorMatrix in="SourceAlpha" type="matrix" values="0 0 0 0 0 0 0 0 0 0 0 0 0 0 0 0 0 0 127 0" result="hardAlpha"/>
<feOffset/>
<feGaussianBlur stdDeviation="8"/>
<feComposite in2="hardAlpha" operator="out"/>
<feColorMatrix type="matrix" values="0 0 0 0 0.141176 0 0 0 0 0.388235 0 0 0 0 0.921569 0 0 0 0.24 0"/>
<feBlend mode="normal" in2="BackgroundImageFix" result="effect1_dropShadow_311_319"/>
<feBlend mode="normal" in="SourceGraphic" in2="effect1_dropShadow_311_319" result="shape"/>
</filter>
</defs>
</svg>
