<svg width="42" height="26" viewBox="0 0 42 26" fill="none" xmlns="http://www.w3.org/2000/svg">
<path d="M29.1666 23.6667C29.1666 24.7712 28.2658 25.6826 27.1746 25.5111C25.3445 25.2236 23.5902 24.5418 22.0368 23.5039C19.9263 22.0937 18.2815 20.0894 17.3101 17.7444C16.3388 15.3995 16.0847 12.8191 16.5798 10.3297C17.075 7.84026 18.2973 5.55358 20.0921 3.7588C21.8868 1.96403 24.1735 0.741772 26.6629 0.246595C29.1524 -0.248582 31.7327 0.00556113 34.0777 0.976886C36.4227 1.94821 38.427 3.59309 39.8371 5.70352C40.8751 7.25697 41.5568 9.0113 41.8444 10.8414C42.0158 11.9326 41.1045 12.8333 39.9999 12.8333L31.1666 12.8333C30.062 12.8333 29.1666 13.7288 29.1666 14.8333L29.1666 23.6667Z" fill="#007AFF" fill-opacity="0.85"/>
<path d="M12.8334 1.99999C12.8334 0.895421 13.7342 -0.0159354 14.8254 0.155518C16.6555 0.443072 18.4098 1.12482 19.9632 2.1628C22.0737 3.57294 23.7185 5.57723 24.6899 7.92222C25.6612 10.2672 25.9153 12.8476 25.4202 15.337C24.925 17.8264 23.7027 20.1131 21.9079 21.9079C20.1132 23.7026 17.8265 24.9249 15.3371 25.4201C12.8476 25.9152 10.2673 25.6611 7.92231 24.6898C5.57732 23.7184 3.57303 22.0736 2.16289 19.9631C1.12491 18.4097 0.443163 16.6554 0.155609 14.8253C-0.0158449 13.7341 0.895513 12.8333 2.00008 12.8333L10.8334 12.8333C11.938 12.8333 12.8334 11.9379 12.8334 10.8333L12.8334 1.99999Z" fill="#007AFF" fill-opacity="0.85"/>
</svg>
