<svg width="60" height="60" viewBox="0 0 60 60" fill="none" xmlns="http://www.w3.org/2000/svg">
<rect width="60" height="60" fill="#1E1E1E"/>
<rect width="60" height="60" rx="30" fill="white"/>
<path d="M38.1666 40.6667C38.1666 41.7712 37.2658 42.6826 36.1746 42.5111C34.3445 42.2236 32.5902 41.5418 31.0368 40.5039C28.9263 39.0937 27.2815 37.0894 26.3101 34.7444C25.3388 32.3995 25.0847 29.8191 25.5798 27.3297C26.075 24.8403 27.2973 22.5536 29.0921 20.7588C30.8868 18.964 33.1735 17.7418 35.6629 17.2466C38.1524 16.7514 40.7327 17.0056 43.0777 17.9769C45.4227 18.9482 47.427 20.5931 48.8371 22.7035C49.8751 24.257 50.5568 26.0113 50.8444 27.8414C51.0158 28.9326 50.1045 29.8333 48.9999 29.8333L40.1666 29.8333C39.062 29.8333 38.1666 30.7288 38.1666 31.8333L38.1666 40.6667Z" fill="#007AFF" fill-opacity="0.85"/>
<path d="M21.8334 19C21.8334 17.8954 22.7342 16.9841 23.8254 17.1555C25.6555 17.4431 27.4098 18.1248 28.9632 19.1628C31.0737 20.5729 32.7185 22.5772 33.6899 24.9222C34.6612 27.2672 34.9153 29.8476 34.4202 32.337C33.925 34.8264 32.7027 37.1131 30.9079 38.9079C29.1132 40.7026 26.8265 41.9249 24.3371 42.4201C21.8476 42.9152 19.2673 42.6611 16.9223 41.6898C14.5773 40.7184 12.573 39.0736 11.1629 36.9631C10.1249 35.4097 9.44316 33.6554 9.15561 31.8253C8.98416 30.7341 9.89551 29.8333 11.0001 29.8333L19.8334 29.8333C20.938 29.8333 21.8334 28.9379 21.8334 27.8333L21.8334 19Z" fill="#007AFF" fill-opacity="0.85"/>
</svg>
