<svg width="32" height="32" viewBox="0 0 32 32" fill="none" xmlns="http://www.w3.org/2000/svg">
<path d="M10.0404 5.94191C6.0302 6.29716 2.62395 9.01616 1.3682 12.8607C1.00695 13.9684 0.882446 14.7624 0.882446 16.0064C0.882446 17.2504 1.00695 18.0442 1.3682 19.1519C3.29345 25.0282 9.9517 27.8007 15.4847 25.0342L15.9999 24.7734L16.5212 25.0342C21.0767 27.3149 26.6154 25.8574 29.4469 21.6162C30.1874 20.5144 30.7562 19.0867 30.9989 17.7302C31.0879 17.2089 31.1174 16.7942 31.1174 16.0064C31.1174 14.7624 30.9932 13.9684 30.6317 12.8607C28.7064 6.98441 22.0482 4.21216 16.5212 6.97841L15.9999 7.23916L15.4847 6.97841C14.3194 6.39935 13.0553 6.04565 11.7587 5.93591C10.9707 5.87066 10.8107 5.87066 10.0404 5.94191ZM12.5759 8.09216C13.1564 8.20466 14.2762 8.64291 14.9572 9.02816C15.8874 9.54941 16.9417 10.5269 17.5874 11.4629C17.9369 11.9722 18.4049 12.9319 18.6714 13.6962C19.0507 14.7624 19.0507 17.2504 18.6714 18.3164C18.2094 19.6199 17.6229 20.6329 16.8352 21.4682C15.8992 22.4634 15.0284 23.0497 13.7252 23.5592C12.8959 23.8849 12.3984 23.9917 11.4209 24.0389C10.2242 24.0982 9.14595 23.9562 8.29895 23.6184C8.0857 23.5294 7.86645 23.4527 7.80145 23.4407C7.67695 23.4112 6.6107 22.8187 6.24945 22.5757C5.86445 22.3152 4.9167 21.3852 4.5492 20.9052C4.3657 20.6624 4.2117 20.4492 4.2117 20.4314C4.2117 20.4137 4.07545 20.1647 3.90945 19.8804C3.6192 19.3769 3.4237 18.9682 3.4712 18.9682C3.48295 18.9682 3.41795 18.7787 3.3232 18.5477C3.03295 17.8547 2.94395 17.2444 2.94395 16.0064C2.94395 14.7682 3.03295 14.1579 3.3232 13.4649C3.41795 13.2339 3.48295 13.0444 3.4712 13.0444C3.4237 13.0444 3.6192 12.6357 3.90945 12.1322C4.07545 11.8479 4.2117 11.5992 4.2117 11.5812C4.2117 11.5634 4.3657 11.3502 4.5492 11.1074C4.9167 10.6274 5.86445 9.69741 6.24945 9.43691C6.60495 9.19391 7.67695 8.60141 7.80145 8.57191C7.86645 8.56016 8.11545 8.47116 8.3582 8.37641C8.8972 8.16316 9.2467 8.08041 9.86895 8.00916C10.5087 7.93816 12.0132 7.98566 12.5759 8.09216Z" fill="#D9D9D9"/>
<path d="M11.2432 12.4343C11.2312 12.4641 11.0772 13.0683 10.9115 13.7851C10.7395 14.5018 10.4672 15.6333 10.3132 16.3026C10.017 17.5288 9.83922 18.3346 9.83922 18.4411C9.83922 18.4706 10.023 18.4946 10.248 18.4946H10.6567L10.8402 17.6768C10.947 17.2326 11.184 16.2138 11.3735 15.4141C11.5632 14.6143 11.794 13.6428 11.883 13.2518C11.9717 12.8608 12.0607 12.5056 12.0785 12.4641C12.0962 12.4108 11.9955 12.3931 11.6875 12.3931C11.4565 12.3931 11.255 12.4108 11.2432 12.4343ZM8.06197 14.9993L7.51697 15.5918L7.67697 15.7813C7.76572 15.8878 8.00872 16.1546 8.21597 16.3738L8.59522 16.7766H9.67347L9.16397 16.2256C8.88547 15.9296 8.65447 15.6451 8.65447 15.6096C8.65447 15.5681 8.86772 15.3016 9.12847 15.0173C9.38897 14.7271 9.60222 14.4781 9.60222 14.4486C9.60222 14.4248 9.37722 14.4071 9.10472 14.4071H8.61297L8.06197 14.9993ZM12.2087 14.4426C12.2087 14.4603 12.3095 14.5728 12.4337 14.6973C12.896 15.1593 13.2217 15.5503 13.204 15.6273C13.1922 15.6688 12.967 15.9471 12.6945 16.2373L12.203 16.7766H12.7537L13.3047 16.7706L13.808 16.2198C14.0867 15.9118 14.3117 15.6391 14.3117 15.6036C14.3117 15.5741 14.0747 15.2956 13.7785 14.9818L13.2455 14.4071H12.73C12.4397 14.4071 12.2087 14.4248 12.2087 14.4426Z" fill="#D9D9D9"/>
</svg>
