<svg width="32" height="32" viewBox="0 0 32 32" fill="none" xmlns="http://www.w3.org/2000/svg">
<path d="M10.1325 19.455V12.685H10.5V13.75C10.5434 13.7028 10.5835 13.6527 10.62 13.6C10.7702 13.2883 11.0061 13.0258 11.3001 12.8434C11.5941 12.661 11.934 12.5661 12.28 12.57C13.1175 12.545 13.7975 12.855 14.1975 13.6C14.452 14.0628 14.5921 14.5798 14.606 15.1078C14.6199 15.6358 14.5073 16.1594 14.2775 16.635C13.905 17.47 12.985 17.885 12 17.7325C11.6935 17.7064 11.3984 17.6039 11.1416 17.4345C10.8848 17.2651 10.6746 17.034 10.53 16.7625V19.455H10.1325ZM10.5 15.08C10.5325 15.41 10.545 15.645 10.5825 15.875C10.7275 16.78 11.2625 17.3175 12.1025 17.415C12.4969 17.4798 12.9016 17.4059 13.2476 17.2058C13.5936 17.0056 13.8595 16.6917 14 16.3175C14.1614 15.9326 14.2391 15.5177 14.2279 15.1005C14.2167 14.6833 14.1169 14.2732 13.935 13.8975C13.7851 13.5621 13.53 13.2846 13.2085 13.1069C12.8869 12.9292 12.5163 12.861 12.1525 12.9125C11.811 12.9372 11.4856 13.0678 11.2217 13.286C10.9578 13.5042 10.7685 13.7992 10.68 14.13C10.6017 14.4429 10.5416 14.7601 10.5 15.08ZM22.1025 16C22.0468 16.4767 21.8199 16.9169 21.464 17.2388C21.1081 17.5607 20.6473 17.7423 20.1675 17.75C18.6275 17.8275 17.905 16.805 17.79 15.625C17.7102 14.9842 17.8142 14.3339 18.09 13.75C18.2821 13.3495 18.5966 13.0205 18.988 12.8106C19.3795 12.6007 19.8276 12.5208 20.2675 12.5825C20.6857 12.6179 21.0821 12.784 21.4007 13.0573C21.7193 13.3305 21.9438 13.6971 22.0425 14.105C22.1207 14.4765 22.1783 14.8521 22.215 15.23H18.1675C18.0925 16.3 18.6675 17.16 19.4825 17.3675C20.4975 17.6175 21.365 17.1775 21.68 16.2125C21.75 15.965 21.8775 15.93 22.1025 16ZM18.1675 14.8875H21.785C21.7625 13.7475 21.0525 12.9225 20.09 12.91C19 12.8925 18.215 13.6875 18.1675 14.8875ZM22.8475 16.025H23.2025C23.2156 16.2862 23.3005 16.5388 23.4478 16.7549C23.5951 16.971 23.7992 17.1423 24.0375 17.25C24.3368 17.3847 24.6626 17.4501 24.9907 17.4415C25.3188 17.4328 25.6407 17.3503 25.9325 17.2C26.0915 17.1283 26.2247 17.0096 26.3141 16.8598C26.4035 16.7101 26.4448 16.5365 26.4325 16.3625C26.4416 16.1947 26.3958 16.0285 26.302 15.8891C26.2081 15.7497 26.0714 15.6447 25.9125 15.59C25.5225 15.445 25.1075 15.365 24.71 15.2375C24.2964 15.1197 23.892 14.9718 23.5 14.795C22.86 14.4825 22.82 13.265 23.545 12.88C23.9162 12.6705 24.334 12.5573 24.7602 12.5508C25.1864 12.5442 25.6075 12.6445 25.985 12.8425C26.2137 12.9689 26.3984 13.162 26.5145 13.396C26.6307 13.6301 26.6727 13.894 26.635 14.1525H26.33C26.33 14.1375 26.3025 14.125 26.3025 14.11C26.265 13.1375 25.45 12.8375 24.575 12.9225C24.3138 12.9547 24.0601 13.0317 23.825 13.15C23.6838 13.2146 23.5661 13.3214 23.4881 13.4558C23.4102 13.5901 23.3759 13.7453 23.39 13.9C23.3904 14.0547 23.4387 14.2055 23.5282 14.3318C23.6178 14.458 23.7441 14.5534 23.89 14.605C24.275 14.745 24.6775 14.835 25.0725 14.945C25.39 15.0325 25.72 15.09 26.0275 15.195C26.2445 15.2661 26.4348 15.4015 26.5732 15.5832C26.7116 15.7649 26.7916 15.9844 26.8025 16.2125C26.8396 16.4625 26.797 16.7178 26.6808 16.9422C26.5646 17.1665 26.3806 17.3486 26.155 17.4625C25.32 17.935 23.945 17.81 23.3325 17.2125C23.1773 17.0564 23.0545 16.8711 22.9712 16.6672C22.888 16.4634 22.8459 16.2452 22.8475 16.025ZM31.3025 14.1525H30.97C30.97 14.1075 30.9525 14.0675 30.9475 14.03C30.9421 13.7808 30.8512 13.5409 30.6901 13.3507C30.529 13.1605 30.3074 13.0314 30.0625 12.985C29.6003 12.8524 29.1073 12.8761 28.66 13.0525C28.4832 13.1032 28.3275 13.2097 28.2162 13.3561C28.105 13.5026 28.044 13.6811 28.0425 13.865C28.0363 14.0456 28.0926 14.2229 28.2019 14.3668C28.3112 14.5107 28.4668 14.6125 28.6425 14.655C29.1425 14.81 29.655 14.905 30.1625 15.045C30.327 15.0845 30.4889 15.1337 30.6475 15.1925C30.8843 15.2772 31.0901 15.4314 31.2379 15.6349C31.3856 15.8384 31.4686 16.0818 31.4759 16.3332C31.4832 16.5846 31.4145 16.8324 31.2787 17.0441C31.143 17.2558 30.9465 17.4217 30.715 17.52C30.3622 17.6802 29.9798 17.765 29.5924 17.7688C29.2049 17.7727 28.8209 17.6956 28.465 17.5425C28.1723 17.4163 27.9253 17.2034 27.7572 16.9325C27.5892 16.6617 27.5081 16.3458 27.525 16.0275H27.85C27.9101 16.3176 28.0401 16.5886 28.2285 16.8172C28.417 17.0457 28.6584 17.2249 28.9317 17.3391C29.205 17.4534 29.502 17.4993 29.7971 17.4728C30.0922 17.4464 30.3763 17.3485 30.625 17.1875C30.7765 17.1088 30.9022 16.9883 30.9873 16.8403C31.0724 16.6923 31.1132 16.523 31.105 16.3525C31.1125 16.1846 31.0651 16.0188 30.9699 15.8803C30.8747 15.7418 30.7369 15.6381 30.5775 15.585C30.1875 15.44 29.7725 15.3625 29.375 15.235C28.959 15.119 28.5521 14.9728 28.1575 14.7975C27.5325 14.49 27.4825 13.2825 28.195 12.8975C28.5708 12.6792 28.9968 12.562 29.4314 12.5572C29.866 12.5523 30.2944 12.6601 30.675 12.87C30.8927 12.9999 31.0679 13.1903 31.1793 13.418C31.2907 13.6457 31.3335 13.9009 31.3025 14.1525ZM9.525 17.6275C9.39411 17.6771 9.24959 17.677 9.11877 17.6272C8.98795 17.5775 8.87988 17.4815 8.815 17.3575C8.4075 16.7475 7.9575 16.165 7.525 15.57L7.3375 15.32C6.8225 16.01 6.3075 16.6725 5.8375 17.36C5.77627 17.4785 5.67404 17.5707 5.54986 17.6195C5.42568 17.6682 5.28801 17.6702 5.1625 17.625L7.095 15.0325L5.2975 12.69C5.42689 12.6433 5.56844 12.6426 5.69825 12.6882C5.82805 12.7337 5.93817 12.8227 6.01 12.94C6.4275 13.55 6.89 14.1325 7.35 14.75C7.8125 14.1375 8.27 13.5525 8.6975 12.9475C8.75907 12.8309 8.86136 12.741 8.98489 12.6949C9.10843 12.6488 9.2446 12.6497 9.3675 12.6975L8.67 13.6225C8.3575 14.035 8.05 14.45 7.725 14.8525C7.69881 14.8759 7.67786 14.9047 7.66352 14.9367C7.64918 14.9688 7.64177 15.0036 7.64177 15.0387C7.64177 15.0739 7.64918 15.1087 7.66352 15.1407C7.67786 15.1728 7.69881 15.2016 7.725 15.225C8.3225 16.0175 8.915 16.8125 9.525 17.6275ZM17.73 12.665V13.015C17.4771 12.9984 17.2236 13.035 16.9858 13.1225C16.748 13.2099 16.5311 13.3463 16.3493 13.5227C16.1674 13.6992 16.0246 13.9118 15.9299 14.1469C15.8353 14.382 15.7911 14.6343 15.8 14.8875V17.6375H15.4425V12.685H15.7925V13.7C16.225 12.96 16.8925 12.685 17.73 12.665ZM0.532501 15C0.585001 14.75 0.617501 14.4775 0.690001 14.2225C1.1225 12.685 2.885 12.045 4.0975 12.9975C4.8075 13.555 4.985 14.345 4.95 15.235H0.950001C0.885001 16.825 2.0325 17.785 3.5 17.295C3.73805 17.2098 3.95115 17.0668 4.12006 16.8786C4.28897 16.6905 4.40838 16.4633 4.4675 16.2175C4.545 15.9675 4.67 15.925 4.9075 15.9975C4.86838 16.3019 4.76077 16.5934 4.59276 16.8501C4.42475 17.1069 4.20072 17.3223 3.9375 17.48C3.5026 17.7178 3.00364 17.812 2.51196 17.7492C2.02029 17.6863 1.56108 17.4696 1.2 17.13C0.84279 16.7284 0.626802 16.2209 0.585001 15.685C0.585001 15.6 0.552501 15.515 0.535001 15.435C0.533335 15.2867 0.532501 15.1417 0.532501 15ZM0.955001 14.8925H4.5725C4.55 13.74 3.8225 12.9225 2.8525 12.915C1.7725 12.9 1 13.7 0.952501 14.8875L0.955001 14.8925Z" fill="#D9D9D9"/>
</svg>
