<svg width="32" height="32" viewBox="0 0 32 32" fill="none" xmlns="http://www.w3.org/2000/svg">
<path d="M31.1855 14.5945L17.4062 0.816004C16.6132 0.0225036 15.3262 0.0225036 14.532 0.816004L11.6712 3.6775L15.3007 7.307C16.1445 7.02225 17.1115 7.21325 17.7837 7.8855C18.1041 8.20616 18.3278 8.61051 18.4291 9.0523C18.5305 9.4941 18.5055 9.9555 18.357 10.3838L21.855 13.8823C22.7012 13.5905 23.678 13.779 24.3535 14.456C25.2985 15.4003 25.2985 16.931 24.3535 17.8758C24.1289 18.1004 23.8623 18.2787 23.5688 18.4003C23.2753 18.5219 22.9608 18.5845 22.6431 18.5845C22.3254 18.5845 22.0109 18.5219 21.7174 18.4003C21.4239 18.2787 21.1573 18.1004 20.9327 17.8758C20.5953 17.5381 20.3653 17.1083 20.2717 16.6402C20.1781 16.1722 20.225 15.6869 20.4065 15.2455L17.1445 11.9833L17.144 20.5685C17.3807 20.6851 17.5967 20.8394 17.7837 21.0255C18.7285 21.9698 18.7285 23.5 17.7837 24.4463C16.839 25.3905 15.3077 25.3905 14.364 24.4463C13.4195 23.5003 13.342 21.97 14.2862 21.0255C14.5197 20.7923 14.75 20.616 15 20.498V11.8333C14.75 11.7153 14.52 11.5403 14.286 11.3055C13.5707 10.5905 13.437 9.5405 13.804 8.6615L10.2457 5.08325L0.807235 14.5308C0.0134849 15.325 0.0184849 16.612 0.812235 17.4058L14.5937 31.1843C15.387 31.9778 16.675 31.9778 17.4695 31.1843L31.1845 17.4698C31.9782 16.6758 31.979 15.388 31.1855 14.5945Z" fill="#D9D9D9"/>
</svg>
