<svg width="32" height="32" viewBox="0 0 32 32" fill="none" xmlns="http://www.w3.org/2000/svg">
<path d="M0.50025 22.6145H1.52725V18.5587L3.11725 22.0945C3.30475 22.5225 3.5615 22.6737 4.06525 22.6737C4.569 22.6737 4.816 22.5225 5.0035 22.0945L6.5935 18.5587V22.6145H7.6205V18.5655C7.6205 18.1705 7.4625 17.9792 7.1365 17.8807C6.35625 17.6372 5.83275 17.848 5.59575 18.3747L4.0355 21.8642L2.52475 18.3745C2.2975 17.848 1.76425 17.6372 0.984 17.8805C0.658 17.9792 0.5 18.1702 0.5 18.5652V22.6145H0.50025ZM8.47475 19.313H9.5015V21.5475C9.492 21.6687 9.5405 21.9537 10.103 21.9627C10.39 21.9672 12.3185 21.9627 12.3365 21.9627V19.302H13.3658C13.3705 19.302 13.3647 22.9305 13.3647 22.9455C13.3702 23.8405 12.2545 24.0347 11.74 24.0497H8.497V23.3587C8.5025 23.3587 11.7378 23.3595 11.7458 23.3585C12.407 23.2887 12.3287 22.9602 12.3285 22.8497V22.5802H10.1458C9.13025 22.571 8.48325 22.1277 8.475 21.6177C8.4745 21.571 8.49725 19.3355 8.47475 19.313Z" fill="#D9D9D9"/>
<path d="M14.1575 22.6145H17.1105C17.4562 22.6145 17.7922 22.5423 18.0587 22.4173C18.503 22.2133 18.7202 21.9368 18.7202 21.5743V20.8238C18.7202 20.5275 18.4735 20.2508 17.9895 20.0668C17.7327 19.9678 17.4165 19.9155 17.1102 19.9155H15.8657C15.451 19.9155 15.2535 19.7905 15.2042 19.514C15.1945 19.481 15.1945 19.4548 15.1945 19.4218V18.9543C15.1945 18.928 15.1945 18.9015 15.2042 18.8688C15.2535 18.658 15.3622 18.5988 15.7277 18.5658L15.8265 18.5593H18.7597V17.8748H15.876C15.4612 17.8748 15.244 17.901 15.0465 17.9603C14.4342 18.1513 14.1672 18.454 14.1672 18.9808V19.5798C14.1672 20.0408 14.691 20.4358 15.5697 20.528C15.6687 20.5343 15.7672 20.5413 15.866 20.5413H16.9327C16.9722 20.5413 17.0117 20.5413 17.0415 20.5475C17.3675 20.5738 17.5055 20.6333 17.6045 20.7515C17.6298 20.7749 17.65 20.8035 17.6635 20.8352C17.6771 20.867 17.6838 20.9012 17.6832 20.9358V21.535C17.6832 21.6073 17.634 21.6995 17.5352 21.7785C17.4465 21.8575 17.2982 21.9103 17.1007 21.9235L16.992 21.93H14.1575V22.6145ZM25.1277 21.423C25.1277 22.1273 25.6512 22.5223 26.7077 22.6015C26.8065 22.608 26.9052 22.6145 27.004 22.6145H29.6805V21.93H26.9845C26.382 21.93 26.155 21.7785 26.155 21.4163V17.8743H25.128V21.423H25.1277ZM19.3757 21.4585V19.0173C19.3757 18.3973 19.8112 18.021 20.6722 17.9023C20.764 17.8891 20.8565 17.8825 20.9492 17.8825H22.899C22.998 17.8825 23.087 17.889 23.1857 17.9023C24.0467 18.021 24.4825 18.397 24.4825 19.0173V21.4585C24.4825 21.962 24.2975 22.231 23.8712 22.4065L24.8832 23.3198H23.6905L22.872 22.5808L22.048 22.633H20.9492C20.7451 22.6317 20.5421 22.6029 20.3457 22.5473C19.6925 22.3693 19.3757 22.026 19.3757 21.4585ZM20.4842 21.3993C20.4842 21.4323 20.494 21.4655 20.504 21.505C20.5632 21.7888 20.8307 21.947 21.2362 21.947H22.1692L21.3122 21.1733H22.505L23.2522 21.8483C23.3902 21.7745 23.4807 21.6625 23.5125 21.5183C23.5222 21.4853 23.5222 21.4523 23.5222 21.4193V19.0773C23.5222 19.051 23.5222 19.0178 23.5125 18.9848C23.453 18.7208 23.1857 18.5693 22.79 18.5693H21.236C20.781 18.5693 20.484 18.7673 20.484 19.0773V21.3993H20.4842Z" fill="#D9D9D9"/>
<path d="M30.584 16.738C29.9527 16.7208 29.4705 16.7795 29.058 16.9533C28.9407 17.0028 28.754 17.004 28.735 17.1508C28.7992 17.2185 28.8092 17.3193 28.8605 17.4023C28.959 17.5615 29.1252 17.775 29.2735 17.8868C29.4352 18.009 29.6022 18.14 29.7762 18.246C30.085 18.4345 30.43 18.542 30.7277 18.7305C30.903 18.842 31.077 18.982 31.2482 19.1078C31.333 19.1695 31.3895 19.2663 31.4997 19.305V19.2873C31.442 19.2138 31.427 19.1128 31.374 19.0358L31.1405 18.8023C30.9122 18.4993 30.6227 18.2335 30.3145 18.0125C30.069 17.8363 29.5195 17.598 29.417 17.3123L29.399 17.2945C29.573 17.2748 29.777 17.2118 29.9375 17.1688C30.2075 17.0963 30.4487 17.115 30.7275 17.043L31.1045 16.935V16.8635C30.9637 16.719 30.863 16.5275 30.7095 16.3968C30.3077 16.0545 29.8687 15.7125 29.417 15.427C29.1665 15.269 28.8567 15.1663 28.591 15.0323C28.502 14.987 28.345 14.9638 28.2857 14.8885C28.146 14.7108 28.0702 14.4855 27.9625 14.2783C27.7324 13.8305 27.5168 13.3755 27.3162 12.9138C27.1802 12.6025 27.0912 12.2955 26.9215 12.0163C26.1062 10.676 25.2287 9.867 23.8695 9.072C23.5802 8.90275 23.232 8.83625 22.8642 8.749L22.2717 8.713C22.1515 8.66275 22.026 8.51525 21.9127 8.44375C21.4622 8.15925 20.3072 7.5405 19.9737 8.35425C19.7632 8.86775 20.2887 9.36875 20.4765 9.629C20.6082 9.8115 20.7772 10.016 20.8715 10.2213C20.9335 10.3563 20.944 10.4915 20.9972 10.6343C21.1275 10.9858 21.2412 11.3685 21.41 11.6933C21.4952 11.8578 21.5895 12.031 21.6972 12.178C21.7632 12.268 21.8767 12.308 21.8945 12.4473C21.7837 12.6023 21.7772 12.8433 21.715 13.0395C21.4345 13.9243 21.5402 15.024 21.9485 15.6788C22.0737 15.88 22.3687 16.311 22.7742 16.1455C23.129 16.001 23.05 15.5533 23.1515 15.158C23.1745 15.0688 23.1602 15.0028 23.2052 14.9428V14.9608L23.5285 15.607C23.7677 15.9923 24.192 16.3945 24.5517 16.6663C24.7382 16.807 24.8852 17.0508 25.1262 17.133V17.1148H25.1085C25.0615 17.042 24.9887 17.012 24.9287 16.9533C24.7882 16.8155 24.632 16.6445 24.516 16.4865C24.1887 16.0425 23.8997 15.5563 23.6362 15.0503C23.5105 14.8088 23.4012 14.5423 23.2952 14.2963C23.2542 14.2015 23.2547 14.058 23.1697 14.0093C23.0532 14.1893 22.8825 14.335 22.7925 14.5478C22.649 14.8878 22.6305 15.3025 22.5772 15.7325L22.5412 15.7503C22.291 15.69 22.2032 15.4325 22.1102 15.2118C21.8752 14.6535 21.8315 13.7543 22.0385 13.1115C22.092 12.945 22.3337 12.4213 22.2357 12.2675C22.189 12.1143 22.0347 12.0258 21.9487 11.9083C21.8359 11.751 21.7396 11.5825 21.6615 11.4055C21.469 10.9703 21.3792 10.4815 21.177 10.0413C21.08 9.83075 20.9165 9.618 20.782 9.431C20.6332 9.2235 20.4665 9.071 20.351 8.8205C20.31 8.7315 20.2542 8.58875 20.315 8.49725C20.3342 8.4355 20.362 8.40975 20.423 8.3895C20.527 8.30925 20.817 8.41625 20.9255 8.46125C21.2135 8.581 21.4537 8.69475 21.6977 8.85625C21.8147 8.934 21.933 9.084 22.0747 9.1255H22.2362C22.489 9.1835 22.7722 9.14325 23.0082 9.215C23.4257 9.342 23.7997 9.53925 24.1392 9.75375C25.174 10.4073 26.0197 11.3373 26.5987 12.4468C26.6917 12.6255 26.7322 12.7958 26.814 12.9853C26.9795 13.3673 27.188 13.7605 27.3525 14.1343C27.5167 14.507 27.677 14.8833 27.9092 15.1935C28.0312 15.3565 28.5027 15.444 28.717 15.5345C28.8672 15.598 29.1132 15.6643 29.2555 15.7498C29.5272 15.9138 29.7907 16.109 30.0455 16.2885C30.1727 16.379 30.5645 16.5758 30.584 16.738ZM22.5592 9.89825C22.4504 9.89647 22.3418 9.90857 22.236 9.93425V9.952H22.254C22.3167 10.0813 22.4275 10.1643 22.5052 10.2753L22.685 10.6523L22.7027 10.6345C22.814 10.5563 22.8647 10.431 22.8642 10.2395C22.8195 10.1925 22.813 10.1338 22.7745 10.078C22.7235 10.003 22.624 9.961 22.5592 9.89825Z" fill="#D9D9D9"/>
</svg>
