<svg width="32" height="32" viewBox="0 0 32 32" fill="none" xmlns="http://www.w3.org/2000/svg">
<path d="M28.5812 20.1873C28.5087 20.1873 28.4367 20.1683 28.3732 20.1313L27.7107 19.7393C27.6117 19.684 27.66 19.6643 27.6927 19.653C27.8247 19.607 27.8515 19.5963 27.9922 19.5168C28.007 19.5085 28.0262 19.5115 28.0415 19.5205L28.5502 19.8228C28.5597 19.8278 28.5702 19.8305 28.581 19.8305C28.5917 19.8305 28.6023 19.8278 28.6117 19.8228L30.596 18.6775C30.6053 18.672 30.613 18.6641 30.6184 18.6547C30.6237 18.6453 30.6265 18.6346 30.6265 18.6238V16.3338C30.6265 16.3228 30.6237 16.3119 30.6183 16.3023C30.6129 16.2928 30.6051 16.2847 30.5957 16.279L28.6122 15.1348C28.6028 15.1296 28.5923 15.1269 28.5816 15.1269C28.5709 15.1269 28.5604 15.1296 28.551 15.1348L26.5677 16.2793C26.5583 16.2849 26.5505 16.2929 26.545 16.3025C26.5396 16.312 26.5366 16.3228 26.5365 16.3338V18.6238C26.5365 18.6458 26.5487 18.6665 26.5677 18.6768L27.1112 18.991C27.4062 19.1383 27.587 18.9648 27.587 18.7903V16.529C27.587 16.4973 27.6127 16.472 27.6445 16.472H27.8962C27.9275 16.472 27.9535 16.4973 27.9535 16.529V18.7903C27.9535 19.1838 27.7392 19.4095 27.366 19.4095C27.2512 19.4095 27.161 19.4095 26.909 19.2855L26.3887 18.986C26.3254 18.9491 26.2729 18.8963 26.2364 18.8328C26.1999 18.7692 26.1807 18.6973 26.1807 18.624V16.334C26.1807 16.1853 26.26 16.0465 26.3887 15.9725L28.373 14.8258C28.4369 14.7909 28.5085 14.7727 28.5813 14.7727C28.6541 14.7727 28.7258 14.7909 28.7897 14.8258L30.774 15.9725C30.9025 16.0468 30.9822 16.1855 30.9822 16.334V18.624C30.9821 18.6973 30.9628 18.7692 30.9263 18.8327C30.8897 18.8962 30.8372 18.9491 30.774 18.986L28.7897 20.1315C28.7264 20.1682 28.6544 20.1875 28.5812 20.1873ZM29.1945 18.6095C28.3257 18.6095 28.144 18.2108 28.144 17.8765C28.144 17.8613 28.1501 17.8467 28.1609 17.836C28.1717 17.8253 28.1863 17.8193 28.2015 17.8193H28.458C28.4717 17.8192 28.485 17.8241 28.4954 17.833C28.5059 17.8419 28.5128 17.8542 28.515 17.8678C28.5535 18.129 28.6692 18.2608 29.1945 18.2608C29.6122 18.2608 29.7902 18.1663 29.7902 17.9443C29.7902 17.8163 29.7397 17.7215 29.0902 17.6578C28.5472 17.604 28.2115 17.4843 28.2115 17.0495C28.2115 16.6493 28.549 16.4103 29.1145 16.4103C29.7502 16.4103 30.0647 16.631 30.1045 17.1045C30.1051 17.1125 30.1041 17.1205 30.1015 17.128C30.0989 17.1356 30.0948 17.1426 30.0895 17.1485C30.084 17.1542 30.0775 17.1587 30.0703 17.1619C30.0631 17.165 30.0553 17.1667 30.0475 17.1668H29.7897C29.7767 17.1668 29.7641 17.1623 29.754 17.1542C29.7438 17.1461 29.7368 17.1347 29.734 17.122C29.672 16.847 29.522 16.7593 29.1142 16.7593C28.658 16.7593 28.605 16.9185 28.605 17.0373C28.605 17.1815 28.6675 17.2235 29.2837 17.305C29.8935 17.3858 30.1832 17.4998 30.1832 17.9285C30.1835 18.3618 29.823 18.6095 29.1945 18.6095ZM24.4955 17.1075C24.5737 17.0618 24.622 16.9783 24.622 16.8875V16.299C24.622 16.2085 24.574 16.125 24.4955 16.0793L22.4045 14.8653C22.3658 14.8428 22.3219 14.8309 22.2772 14.8308C22.2324 14.8307 22.1885 14.8424 22.1497 14.8648L20.0457 16.0795C20.0071 16.1018 19.9751 16.1339 19.9528 16.1725C19.9305 16.2111 19.9188 16.2549 19.9187 16.2995V18.7285C19.9187 18.8198 19.9677 18.9043 20.0472 18.9495L22.138 20.1408C22.215 20.185 22.3095 20.1853 22.3872 20.1423L23.6517 19.4393C23.6714 19.4283 23.6878 19.4124 23.6993 19.393C23.7108 19.3736 23.7169 19.3516 23.7171 19.3291C23.7173 19.3066 23.7114 19.2844 23.7002 19.2649C23.689 19.2454 23.6728 19.2292 23.6532 19.218L21.5362 18.003C21.5168 17.9919 21.5007 17.9759 21.4894 17.9566C21.4782 17.9373 21.4722 17.9154 21.4722 17.893V17.1315C21.4722 17.086 21.4965 17.0443 21.5357 17.0218L22.195 16.6418C22.2142 16.6306 22.2361 16.6247 22.2583 16.6247C22.2806 16.6247 22.3025 16.6306 22.3217 16.6418L22.981 17.0218C23.0003 17.0328 23.0164 17.0488 23.0276 17.0681C23.0388 17.0873 23.0447 17.1092 23.0447 17.1315V17.7305C23.0446 17.7529 23.0504 17.7749 23.0616 17.7944C23.0727 17.8138 23.0888 17.8299 23.1082 17.8411C23.1276 17.8523 23.1496 17.8581 23.172 17.858C23.1944 17.8579 23.2164 17.8519 23.2357 17.8405L24.4955 17.1075ZM22.246 16.9935C22.2534 16.9893 22.2618 16.9872 22.2703 16.9872C22.2789 16.9872 22.2873 16.9893 22.2947 16.9935L22.6985 17.2268C22.7135 17.2355 22.7227 17.2518 22.7227 17.269V17.7353C22.7227 17.7528 22.7135 17.7688 22.6985 17.7775L22.2947 18.0105C22.2873 18.0148 22.2789 18.0171 22.2703 18.0171C22.2618 18.0171 22.2534 18.0148 22.246 18.0105L21.8425 17.7775C21.835 17.7733 21.8288 17.7671 21.8245 17.7597C21.8202 17.7523 21.818 17.7438 21.818 17.7353V17.269C21.818 17.2518 21.8272 17.2355 21.8425 17.2268L22.246 16.9935ZM16.7707 17.9635C16.7707 17.986 16.7587 18.007 16.739 18.0185L16.0165 18.435C16.0068 18.4406 15.9959 18.4436 15.9847 18.4436C15.9736 18.4436 15.9626 18.4406 15.953 18.435L15.2305 18.0185C15.2208 18.0129 15.2128 18.0049 15.2073 17.9952C15.2017 17.9856 15.1987 17.9746 15.1987 17.9635V17.129C15.1987 17.1065 15.211 17.0853 15.2305 17.0738L15.953 16.6568C15.9626 16.651 15.9736 16.6479 15.9848 16.6479C15.9961 16.6479 16.0071 16.651 16.0167 16.6568L16.7395 17.0738C16.7491 17.0795 16.757 17.0875 16.7625 17.0972C16.768 17.1069 16.7709 17.1179 16.771 17.129V17.9635H16.7707ZM16.966 11.7845C16.9466 11.7739 16.9248 11.7685 16.9027 11.7689C16.8807 11.7692 16.8591 11.7753 16.84 11.7865C16.821 11.7976 16.8052 11.8136 16.7941 11.8327C16.7831 11.8518 16.7772 11.8734 16.777 11.8955V15.1243C16.7769 15.1398 16.7728 15.1551 16.765 15.1686C16.7573 15.1821 16.7461 15.1934 16.7327 15.2013C16.7192 15.209 16.7038 15.2131 16.6882 15.2131C16.6726 15.2131 16.6573 15.209 16.6437 15.2013L16.1167 14.8975C16.0781 14.8753 16.0344 14.8636 15.9898 14.8636C15.9453 14.8636 15.9016 14.8753 15.863 14.8975L13.7585 16.112C13.7198 16.1343 13.6877 16.1664 13.6654 16.2051C13.643 16.2437 13.6313 16.2876 13.6312 16.3323V18.762C13.6312 18.8528 13.6797 18.9365 13.7582 18.9823L15.8627 20.1975C15.9412 20.243 16.0382 20.243 16.117 20.1975L18.222 18.9823C18.2606 18.9599 18.2926 18.9277 18.3149 18.8891C18.3372 18.8504 18.3489 18.8066 18.349 18.762V12.7053C18.349 12.6133 18.299 12.5283 18.2187 12.4833L16.966 11.7845ZM9.55947 14.8518C9.59807 14.8294 9.64188 14.8176 9.68647 14.8176C9.73107 14.8176 9.77488 14.8294 9.81347 14.8518L11.918 16.066C11.9965 16.1115 12.045 16.1955 12.045 16.2863V18.7168C12.045 18.8075 11.9965 18.8915 11.918 18.937L9.81372 20.1523C9.77505 20.1745 9.73121 20.1862 9.6866 20.1862C9.64198 20.1862 9.59815 20.1745 9.55947 20.1523L7.45572 18.937C7.41714 18.9146 7.3851 18.8825 7.36282 18.8438C7.34053 18.8052 7.32878 18.7614 7.32872 18.7168V16.286C7.32872 16.1955 7.37722 16.1115 7.45572 16.066L9.55947 14.8518ZM5.73247 16.266C5.73247 16.1745 5.68447 16.0905 5.60547 16.0453L3.50172 14.8345C3.46639 14.814 3.42654 14.8026 3.38572 14.8013H3.36397C3.32316 14.8026 3.28332 14.814 3.24797 14.8345L1.14397 16.0453C1.10527 16.0677 1.07314 16.0998 1.0508 16.1386C1.02847 16.1773 1.01671 16.2213 1.01672 16.266L1.02122 19.526C1.02122 19.5715 1.04497 19.6138 1.08472 19.6358C1.10376 19.6473 1.12559 19.6534 1.14785 19.6534C1.17011 19.6534 1.19194 19.6473 1.21097 19.6358L2.46097 18.9198C2.53997 18.8728 2.58822 18.79 2.58822 18.6993V17.1763C2.58822 17.0853 2.63622 17.0015 2.71497 16.956L3.24747 16.6495C3.28596 16.6269 3.32983 16.6151 3.37447 16.6153C3.41797 16.6153 3.46247 16.6263 3.50122 16.6495L4.03322 16.956C4.11197 17.0015 4.16047 17.0853 4.16047 17.1763V18.6993C4.16047 18.79 4.20922 18.8733 4.28772 18.9198L5.53772 19.6358C5.557 19.6468 5.57883 19.6525 5.60103 19.6525C5.62323 19.6524 5.64502 19.6466 5.66425 19.6355C5.68347 19.6243 5.69945 19.6084 5.71059 19.5892C5.72172 19.57 5.72763 19.5482 5.72772 19.526L5.73247 16.266Z" fill="#D9D9D9"/>
</svg>
