<svg width="32" height="32" viewBox="0 0 32 32" fill="none" xmlns="http://www.w3.org/2000/svg">
<path d="M16 8.25975C7.565 8.25975 0.726501 11.7252 0.726501 16C0.726501 20.2747 7.565 23.7402 16 23.7402C24.435 23.7402 31.2735 20.2747 31.2735 16C31.2735 11.7252 24.435 8.25975 16 8.25975ZM12.0258 17.508C11.6613 17.849 11.2565 17.9897 10.8108 18.1348C10.365 18.28 9.79775 18.25 9.108 18.25H7.54475L7.1115 20.75H5.28625L6.915 12.25H10.425C11.481 12.25 12.2513 12.5538 12.7355 13.108C13.2198 13.6622 13.3653 14.449 13.1723 15.4423C13.0925 15.8515 12.9583 16.232 12.7688 16.571C12.5724 16.9208 12.3216 17.2371 12.0258 17.508ZM17.3535 18.25L18.0738 14.645C18.1558 14.223 18.1258 13.9095 17.9835 13.7563C17.841 13.6028 17.538 13.5 17.0748 13.5H15.6273L14.6945 18.25H12.8835L14.5123 10H16.3233L15.8903 12.25H17.5035C18.5188 12.25 19.2188 12.4537 19.604 12.8077C19.9893 13.1617 20.1048 13.6467 19.9508 14.4397L19.193 18.25H17.3535ZM27.4183 15.4555C27.3388 15.8647 27.2043 16.2387 27.015 16.5775C26.8255 16.9167 26.578 17.227 26.2723 17.508C25.9078 17.849 25.5028 17.9897 25.0573 18.1348C24.6118 18.28 24.044 18.25 23.3543 18.25H21.791L21.358 20.75H19.5328L21.1613 12.25H24.6715C25.7275 12.25 26.4978 12.5538 26.9818 13.108C27.4655 13.6622 27.6113 14.4625 27.4183 15.4555ZM23.9798 13.5H22.7295L22.0478 17H23.1583C23.8938 17 24.4423 16.9275 24.8023 16.65C25.1628 16.373 25.4055 15.943 25.5318 15.2948C25.6528 14.672 25.5978 14.1863 25.3668 13.9303C25.1355 13.6743 24.6733 13.5 23.9798 13.5ZM9.7335 13.5H8.483L7.80125 17H8.9115C9.64725 17 10.1955 16.9275 10.5558 16.65C10.916 16.373 11.159 15.943 11.285 15.2948C11.406 14.672 11.351 14.1863 11.12 13.9303C10.889 13.6743 10.427 13.5 9.7335 13.5Z" fill="#D9D9D9"/>
</svg>
