<svg width="32" height="32" viewBox="0 0 32 32" fill="none" xmlns="http://www.w3.org/2000/svg">
<path d="M16 14.2C17.2841 14.2 18.3251 13.1591 18.3251 11.875C18.3251 10.5909 17.2841 9.55 16 9.55C14.716 9.55 13.675 10.5909 13.675 11.875C13.675 13.1591 14.716 14.2 16 14.2Z" fill="#D9D9D9"/>
<path d="M16 20.425C17.825 22.2 19.625 23.25 21.075 23.25C21.55 23.25 22 23.15 22.375 22.925C23.675 22.175 24.15 20.3 23.7 17.625C23.625 17.15 23.525 16.675 23.4 16.175C23.9 16.025 24.35 15.875 24.8 15.725C27.325 14.75 28.725 13.4 28.725 11.925C28.725 10.425 27.325 9.075 24.8 8.125C24.35 7.95 23.9 7.8 23.4 7.675C23.525 7.175 23.625 6.7 23.7 6.225C24.125 3.5 23.65 1.6 22.35 0.85C21.975 0.625 21.525 0.525 21.05 0.525C19.625 0.525 17.8 1.575 15.975 3.35C14.175 1.575 12.375 0.525 10.925 0.525C10.45 0.525 10 0.625 9.62502 0.85C8.32502 1.6 7.85002 3.475 8.30002 6.15C8.37502 6.625 8.47502 7.1 8.60002 7.6C8.10002 7.75 7.65002 7.9 7.20002 8.05C4.67502 9.025 3.27502 10.375 3.27502 11.85C3.27502 13.35 4.67502 14.7 7.20002 15.65C7.65002 15.825 8.10002 15.975 8.60002 16.1C8.47502 16.6 8.37502 17.075 8.30002 17.55C7.87502 20.225 8.35002 22.125 9.62502 22.85C10 23.075 10.45 23.175 10.925 23.175C12.375 23.225 14.175 22.175 16 20.425ZM14.6 17.05C15.05 17.075 15.525 17.075 16 17.075C16.475 17.075 16.95 17.075 17.4 17.05C16.95 17.65 16.475 18.2 16 18.725C15.525 18.2 15.05 17.65 14.6 17.05ZM11.5 14.475C11.75 14.9 11.975 15.3 12.25 15.7C11.475 15.6 10.75 15.475 10.05 15.325C10.275 14.65 10.525 13.95 10.825 13.25C11.025 13.65 11.25 14.075 11.5 14.475ZM10.05 8.45C10.75 8.3 11.475 8.175 12.25 8.075C12 8.475 11.75 8.875 11.5 9.3C11.25 9.725 11.025 10.125 10.825 10.55C10.5 9.825 10.25 9.125 10.05 8.45ZM11.425 11.875C11.75 11.2 12.1 10.525 12.5 9.85C12.875 9.2 13.3 8.55 13.725 7.9C14.475 7.85 15.225 7.825 16 7.825C16.8 7.825 17.55 7.85 18.275 7.9C18.725 8.55 19.125 9.2 19.5 9.85C19.9 10.525 20.25 11.2 20.575 11.875C20.25 12.55 19.9 13.225 19.5 13.9C19.125 14.55 18.7 15.2 18.275 15.85C17.525 15.9 16.775 15.925 16 15.925C15.2 15.925 14.45 15.9 13.725 15.85C13.275 15.2 12.875 14.55 12.5 13.9C12.1 13.225 11.75 12.55 11.425 11.875ZM21.2 10.525L20.525 9.275C20.275 8.85 20.05 8.45 19.775 8.05C20.55 8.15 21.275 8.275 21.975 8.425C21.75 9.125 21.5 9.825 21.2 10.525ZM21.2 13.225C21.5 13.925 21.75 14.625 21.975 15.3C21.275 15.45 20.55 15.575 19.775 15.675C20.025 15.275 20.275 14.875 20.525 14.45C20.75 14.075 20.975 13.65 21.2 13.225ZM21.775 21.9C21.575 22.025 21.325 22.075 21.05 22.075C19.825 22.075 18.3 21.075 16.8 19.575C17.525 18.8 18.225 17.925 18.925 16.95C20.1 16.85 21.225 16.675 22.275 16.425C22.4 16.875 22.475 17.325 22.55 17.775C22.9 19.9 22.625 21.425 21.775 21.9ZM23.075 8.725C25.875 9.525 27.55 10.75 27.55 11.875C27.55 12.85 26.4 13.825 24.375 14.6C23.975 14.75 23.525 14.9 23.075 15.025C22.75 14 22.35 12.95 21.85 11.875C22.35 10.8 22.775 9.75 23.075 8.725ZM21.075 1.675C21.35 1.675 21.575 1.725 21.8 1.85C22.625 2.325 22.925 3.825 22.575 5.975C22.5 6.4 22.4 6.85 22.3 7.325C21.25 7.1 20.125 6.925 18.95 6.8C18.275 5.825 17.55 4.95 16.825 4.175C18.325 2.7 19.85 1.675 21.075 1.675ZM17.4 6.7C16.95 6.675 16.475 6.675 16 6.675C15.525 6.675 15.05 6.675 14.6 6.7C15.05 6.1 15.525 5.55 16 5.025C16.475 5.55 16.95 6.125 17.4 6.7ZM10.225 1.85C10.425 1.725 10.675 1.675 10.95 1.675C12.175 1.675 13.7 2.675 15.2 4.175C14.475 4.95 13.775 5.825 13.075 6.8C11.9 6.9 10.775 7.075 9.72502 7.325C9.60002 6.875 9.52502 6.425 9.45002 5.975C9.10002 3.85 9.37502 2.35 10.225 1.85ZM8.92502 15.025C6.12502 14.225 4.45002 13 4.45002 11.875C4.45002 10.9 5.60002 9.925 7.62502 9.15C8.02502 9 8.47502 8.85 8.92502 8.725C9.25002 9.75 9.65002 10.8 10.15 11.875C9.65002 12.95 9.22502 14.025 8.92502 15.025ZM9.45002 17.775C9.52502 17.35 9.62502 16.9 9.72502 16.425C10.775 16.65 11.9 16.825 13.075 16.95C13.75 17.925 14.475 18.8 15.2 19.575C13.7 21.05 12.175 22.075 10.95 22.075C10.675 22.075 10.45 22.025 10.225 21.9C9.37502 21.425 9.10002 19.9 9.45002 17.775ZM8.40002 28.075C8.95002 27.4 8.97502 26.65 8.67502 25.9C8.37502 25.15 7.75002 24.8 6.97502 24.775C6.05002 24.75 5.10002 24.775 4.17502 24.775H4.00002V31.25H4.75002V28.8H5.92502C6.07502 28.8 6.20002 28.85 6.27502 28.975L7.77502 31.3C7.80002 31.35 7.87502 31.425 7.92502 31.425H8.90002C8.30002 30.5 7.72502 29.625 7.12502 28.725C7.65002 28.65 8.10002 28.475 8.40002 28.075ZM4.75002 28.025V25.55H5.02502C5.60002 25.55 6.20002 25.525 6.77502 25.575C7.45002 25.6 7.92502 26.125 7.92502 26.8C7.92502 27.475 7.37502 28 6.70002 28.025C6.10002 28.05 5.50002 28.025 4.75002 28.025ZM14.425 28.35C14.025 26.6 12.425 26.15 11.2 26.7C10.25 27.125 9.82502 27.95 9.80002 28.975C9.77502 29.75 10 30.45 10.6 30.975C11.275 31.575 12.1 31.65 12.95 31.5C13.425 31.4 13.85 31.175 14.175 30.825C14.05 30.65 13.925 30.475 13.8 30.325C13.1 30.925 12.325 31.125 11.475 30.725C10.925 30.45 10.65 29.775 10.6 29.275H14.475V28.95C14.5 28.725 14.475 28.525 14.425 28.35ZM10.65 28.75C10.575 28 11.325 27.2 12.15 27.2C13.1 27.175 13.7 27.75 13.725 28.75H10.65ZM18.325 26.575C17.95 26.5 17.55 26.475 17.175 26.5C16.575 26.55 16.05 26.825 15.625 27.275C15.75 27.45 15.85 27.625 16 27.825C16.05 27.775 16.1 27.725 16.15 27.7C16.55 27.325 17.025 27.125 17.6 27.175C18.05 27.2 18.475 27.35 18.6 27.8C18.7 28.15 18.675 28.525 18.7 28.9C18.625 28.9 18.6 28.875 18.575 28.85C17.975 28.35 17.3 28.25 16.575 28.425C15.9 28.6 15.475 29.125 15.425 29.8C15.375 30.575 15.725 31.15 16.4 31.425C16.825 31.6 17.3 31.6 17.75 31.5C18.1 31.425 18.25 31.225 18.75 30.95V31.275H19.45C19.45 30.275 19.475 29.05 19.45 27.9C19.45 27.175 19.025 26.725 18.325 26.575ZM18.675 29.725C18.65 29.8 18.675 29.875 18.675 29.95C18.675 30.475 18.55 30.65 18.05 30.85C17.7 30.975 17.325 31.025 16.95 30.9C16.525 30.775 16.225 30.4 16.225 29.975C16.2 29.55 16.475 29.125 16.9 29C17.475 28.8 18 28.925 18.475 29.275C18.625 29.4 18.725 29.525 18.675 29.725ZM22.575 27.25C23.225 27.05 23.825 27.175 24.275 27.725L24.35 27.775C24.525 27.625 24.675 27.475 24.875 27.3C24.8 27.225 24.775 27.175 24.725 27.1C24 26.325 22.575 26.225 21.7 26.85C20.475 27.75 20.5 29.5 21.1 30.425C21.675 31.3 22.5 31.6 23.475 31.475C24.05 31.4 24.525 31.125 24.9 30.65C24.725 30.5 24.55 30.35 24.375 30.175C24.325 30.225 24.3 30.25 24.275 30.3C23.6 31.05 22.475 30.975 21.875 30.175C21.525 29.7 21.45 29.15 21.55 28.6C21.6 27.975 21.925 27.475 22.575 27.25ZM27.775 30.65C27.725 30.675 27.7 30.7 27.7 30.7C27.5 30.85 27.3 30.875 27.075 30.8C26.85 30.7 26.825 30.5 26.8 30.3V27.45C26.8 27.4 26.8 27.5 26.825 27.25H27.775V26.5H26.775V25.25H26.025V26.6H25.375C25.325 26.6 25.25 26.65 25.25 26.7C25.225 26.875 25.25 27 25.25 27.25H26.05V30.45C26.05 30.85 26.15 31.2 26.5 31.4C26.875 31.625 27.6 31.575 27.925 31.3C27.975 31.275 28 31.175 28 31.15C27.925 31 27.85 30.825 27.775 30.65Z" fill="#D9D9D9"/>
</svg>
