<svg width="32" height="32" viewBox="0 0 32 32" fill="none" xmlns="http://www.w3.org/2000/svg">
<path d="M31.1855 14.5945L17.4063 0.815996C16.6133 0.022496 15.3263 0.022496 14.532 0.815996L11.6713 3.6775L15.3008 7.307C16.1445 7.02225 17.1115 7.21325 17.7838 7.8855C18.1042 8.20615 18.3278 8.6105 18.4292 9.05229C18.5306 9.49409 18.5056 9.9555 18.357 10.3837L21.855 13.8822C22.7013 13.5905 23.678 13.779 24.3535 14.456C25.2985 15.4002 25.2985 16.931 24.3535 17.8757C24.129 18.1004 23.8623 18.2787 23.5689 18.4003C23.2754 18.5219 22.9608 18.5844 22.6432 18.5844C22.3255 18.5844 22.0109 18.5219 21.7175 18.4003C21.424 18.2787 21.1574 18.1004 20.9328 17.8757C20.5954 17.5381 20.3654 17.1083 20.2718 16.6402C20.1781 16.1722 20.225 15.6869 20.4065 15.2455L17.1445 11.9832L17.144 20.5685C17.3807 20.685 17.5968 20.8394 17.7838 21.0255C18.7285 21.9697 18.7285 23.5 17.7838 24.4462C16.839 25.3905 15.3078 25.3905 14.364 24.4462C13.4195 23.5002 13.342 21.97 14.2863 21.0255C14.5198 20.7922 14.75 20.616 15 20.498V11.8332C14.75 11.7152 14.52 11.5402 14.286 11.3055C13.5708 10.5905 13.437 9.5405 13.804 8.6615L10.2458 5.08325L0.807296 14.5307C0.0135459 15.325 0.0185459 16.612 0.812296 17.4057L14.5938 31.1842C15.387 31.9777 16.675 31.9777 17.4695 31.1842L31.1845 17.4697C31.9783 16.6757 31.979 15.388 31.1855 14.5945Z" fill="#2463EB"/>
</svg>
