<svg width="32" height="32" viewBox="0 0 32 32" fill="none" xmlns="http://www.w3.org/2000/svg">
<path d="M3.30675 14.0185C2.42475 14.0185 1.875 14.463 1.65625 15.3438C1.98725 14.9005 2.375 14.7373 2.8125 14.8495C3.0625 14.912 3.24425 15.0938 3.44325 15.2998C3.7685 15.6308 4.1435 16.0128 4.963 16.0128C5.84375 16.0128 6.3935 15.5683 6.61225 14.6875C6.28125 15.1308 5.8935 15.294 5.456 15.1818C5.206 15.1193 5.0255 14.9375 4.82525 14.7315C4.5 14.4005 4.125 14.0185 3.30675 14.0185ZM1.6505 16C0.7685 16 0.21875 16.4433 0 17.325C0.331 16.8808 0.71875 16.7188 1.15625 16.831C1.40625 16.8935 1.588 17.0753 1.787 17.2813C2.11225 17.6123 2.48725 17.9943 3.30675 17.9943C4.1875 17.9943 4.73725 17.5498 4.956 16.669C4.625 17.1123 4.23725 17.2755 3.79975 17.162C3.54975 17.0995 3.36925 16.919 3.169 16.713C2.8495 16.3808 2.4745 16 1.6505 16Z" fill="#2463EB"/>
<path d="M9.91899 15.6875H9.34374V16.8067C9.34374 17.1065 9.53699 17.0995 9.91874 17.081V17.5312C9.14374 17.625 8.83799 17.412 8.83799 16.8067V15.6875H8.41199V15.206H8.83799V14.581L9.33799 14.4317V15.206H9.91199V15.6875H9.91899ZM12.119 15.206H12.619V17.5312H12.119V17.1932C11.9432 17.4375 11.669 17.588 11.3065 17.588C10.6747 17.588 10.1505 17.0497 10.1505 16.3622C10.1505 15.669 10.6747 15.1377 11.3067 15.1377C11.669 15.1377 11.9432 15.287 12.1192 15.5312L12.119 15.206ZM11.3807 17.1122C11.7997 17.1122 12.1192 16.7997 12.1192 16.3692C12.1192 15.9375 11.7997 15.625 11.3807 15.625C10.963 15.625 10.6435 15.9375 10.6435 16.3692C10.6505 16.7997 10.963 17.1122 11.381 17.1122H11.3807ZM13.456 14.8565C13.2812 14.8565 13.1377 14.706 13.1377 14.537C13.1377 14.3622 13.2812 14.2187 13.456 14.2187C13.631 14.2187 13.7755 14.3622 13.7755 14.537C13.7812 14.706 13.6307 14.8565 13.456 14.8565ZM13.206 17.5312V15.2062H13.706V17.5312H13.206ZM14.287 17.5312V14.1377H14.787V17.5312H14.287ZM18.0567 15.2062H18.588L17.8565 17.5312H17.3622L16.8807 15.963L16.3935 17.5312H15.9005L15.169 15.2062H15.7L16.15 16.8125L16.6375 15.206H17.119L17.5992 16.8125L18.0567 15.2062ZM19.206 14.8562C19.0312 14.8562 18.8877 14.7062 18.8877 14.537C18.8877 14.3622 19.0312 14.2187 19.206 14.2187C19.381 14.2187 19.5255 14.3622 19.5255 14.537C19.5312 14.706 19.3877 14.8565 19.206 14.8565V14.8562ZM18.956 17.5312V15.2062H19.456V17.5312H18.956ZM21.2627 15.1437C21.7812 15.1437 22.1562 15.5 22.1562 16.0995V17.5312H21.6562V16.1562C21.6562 15.7997 21.4502 15.6192 21.1377 15.6192C20.8067 15.6192 20.544 15.8125 20.544 16.287V17.537H20.044V15.213H20.544V15.5127C20.7002 15.2627 20.9502 15.1435 21.2627 15.1435V15.1437ZM24.544 14.2755H25.044V17.5312H24.544V17.1932C24.369 17.4375 24.0937 17.588 23.7315 17.588C23.0995 17.588 22.5752 17.0497 22.5752 16.3622C22.5752 15.669 23.0995 15.1377 23.7315 15.1377C24.0937 15.1377 24.369 15.287 24.544 15.5312V14.2755ZM23.8065 17.1122C24.2245 17.1122 24.544 16.7997 24.544 16.3692C24.544 15.9375 24.2245 15.625 23.8065 15.625C23.3877 15.625 23.0682 15.9375 23.0682 16.3692C23.0682 16.7997 23.3877 17.1122 23.8067 17.1122H23.8065ZM26.7245 17.5937C26.0255 17.5937 25.4942 17.0567 25.4942 16.3692C25.4942 15.6747 26.0185 15.1435 26.7245 15.1435C27.1817 15.1435 27.5752 15.381 27.7627 15.7442L27.331 15.9942C27.2315 15.7755 27 15.6377 26.7187 15.6377C26.3067 15.6377 26 15.9502 26 16.3692C26 16.787 26.3125 17.0995 26.7187 17.0995C27 17.0995 27.2245 16.956 27.338 16.7442L27.7685 16.9872C27.581 17.3565 27.1817 17.5937 26.7245 17.5937ZM28.6065 15.8437C28.6065 16.2687 29.8565 16.0127 29.8565 16.875C29.8565 17.338 29.4502 17.5937 28.9502 17.5937C28.4872 17.5937 28.1502 17.3807 28 17.0497L28.4317 16.7997C28.5057 17.0127 28.6932 17.1377 28.9502 17.1377C29.1747 17.1377 29.3437 17.0625 29.3437 16.875C29.3437 16.463 28.0937 16.6932 28.0937 15.8625C28.0937 15.425 28.4687 15.1505 28.9432 15.1505C29.3252 15.1505 29.6435 15.3252 29.8067 15.6307L29.3807 15.8692C29.2997 15.6875 29.1377 15.6065 28.9432 15.6065C28.7627 15.5995 28.6065 15.6815 28.6065 15.8437ZM30.75 15.8437C30.75 16.2687 32 16.0127 32 16.875C32 17.338 31.5937 17.5937 31.0937 17.5937C30.6307 17.5937 30.2937 17.3807 30.1437 17.0497L30.5752 16.7997C30.6502 17.0127 30.8377 17.1377 31.0937 17.1377C31.3182 17.1377 31.4872 17.0625 31.4872 16.875C31.4872 16.463 30.2372 16.6932 30.2372 15.8625C30.2372 15.425 30.6122 15.1505 31.088 15.1505C31.4687 15.1505 31.787 15.3252 31.9502 15.6307L31.5252 15.8692C31.4432 15.6875 31.2812 15.6065 31.0877 15.6065C30.9062 15.5995 30.75 15.6815 30.75 15.8437Z" fill="#2463EB"/>
</svg>
