<svg width="32" height="32" viewBox="0 0 32 32" fill="none" xmlns="http://www.w3.org/2000/svg">
<path d="M5.66748 11.75H30.585V30.1675H5.66748V11.75Z" fill="white"/>
<path d="M0.375 15.9775V31.6025H31.625V0.352501H0.375V15.9775ZM25.5575 14.7275C26.306 14.9012 26.9862 15.2927 27.5125 15.8525C27.8022 16.1541 28.0541 16.4899 28.2625 16.8525C28.2625 16.8925 26.9125 17.805 26.09 18.315C26.06 18.335 25.94 18.205 25.8075 18.0075C25.6574 17.7484 25.444 17.5316 25.1874 17.3773C24.9308 17.223 24.6392 17.1362 24.34 17.125C23.3925 17.06 22.7825 17.5575 22.7875 18.375C22.7797 18.5785 22.8263 18.7805 22.9225 18.96C23.13 19.3925 23.5175 19.65 24.7325 20.175C26.97 21.1375 27.9275 21.7725 28.5225 22.675C29.1875 23.675 29.335 25.29 28.885 26.485C28.385 27.785 27.16 28.6675 25.4275 28.96C24.6362 29.0506 23.8367 29.0422 23.0475 28.935C21.8379 28.7356 20.7237 28.1549 19.8675 27.2775C19.58 26.96 19.02 26.1325 19.055 26.0725C19.1463 26.0048 19.2424 25.9438 19.3425 25.89L20.5 25.25L21.3975 24.73L21.585 25.0075C21.9014 25.4601 22.3041 25.8459 22.77 26.1425C23.77 26.6675 25.135 26.595 25.81 25.9875C26.0366 25.7649 26.178 25.4698 26.2095 25.1537C26.2411 24.8376 26.1607 24.5205 25.9825 24.2575C25.7325 23.91 25.2325 23.6175 23.835 23.0075C22.2225 22.3125 21.5275 21.8825 20.8925 21.1975C20.4961 20.7455 20.2034 20.2122 20.035 19.635C19.9094 18.9756 19.8908 18.3003 19.98 17.635C20.3125 16.0775 21.48 14.99 23.185 14.6675C23.9746 14.5698 24.7744 14.5917 25.5575 14.7325V14.7275ZM18.2225 16.0375V17.3175H14.165V28.875H11.2875V17.315H7.22V16.065C7.20733 15.6339 7.21734 15.2025 7.25 14.7725C7.27 14.75 9.75 14.75 12.75 14.75H18.2075L18.2225 16.0375Z" fill="#2463EB"/>
</svg>
